HIERARCHY
ROOT Hips
{
	OFFSET 0.000000 0.000000 0.000000
	CHANNELS 6 Xposition Yposition Zposition Zrotation Yrotation Xrotation 
	JOINT LHipJoint
	{
		OFFSET 0.000000 0.000000 0.000000
		CHANNELS 3 Zrotation Yrotation Xrotation
		JOINT LeftUpLeg
		{
			OFFSET 1.363060 -1.794630 0.839290
			CHANNELS 3 Zrotation Yrotation Xrotation
			JOINT LeftLeg
			{
				OFFSET 2.448110 -6.726130 0.000000
				CHANNELS 3 Zrotation Yrotation Xrotation
				JOINT LeftFoot
				{
					OFFSET 2.562200 -7.039590 0.000000
					CHANNELS 3 Zrotation Yrotation Xrotation
					JOINT LeftToeBase
					{
						OFFSET 0.157640 -0.433110 2.322550
						CHANNELS 3 Zrotation Yrotation Xrotation
						End Site
						{
							OFFSET 0.000000 0.000000 0.000000
						}
					}
				}
			}
		}
	}
	JOINT RHipJoint
	{
		OFFSET 0.000000 0.000000 0.000000
		CHANNELS 3 Zrotation Yrotation Xrotation
		JOINT RightUpLeg
		{
			OFFSET -1.305520 -1.794630 0.839290
			CHANNELS 3 Zrotation Yrotation Xrotation
			JOINT RightLeg
			{
				OFFSET -2.542530 -6.985550 0.000000
				CHANNELS 3 Zrotation Yrotation Xrotation
				JOINT RightFoot
				{
					OFFSET -2.568260 -7.056230 0.000000
					CHANNELS 3 Zrotation Yrotation Xrotation
					JOINT RightToeBase
					{
						OFFSET -0.164730 -0.452590 2.363150
						CHANNELS 3 Zrotation Yrotation Xrotation
						End Site
						{
							OFFSET 0.000000 0.000000 0.000000
						}
					}
				}
			}
		}
	}
	JOINT LowerBack
	{
		OFFSET 0.000000 0.000000 0.000000
		CHANNELS 3 Zrotation Yrotation Xrotation
		JOINT Spine
		{
			OFFSET 0.028270 2.035590 -0.193380
			CHANNELS 3 Zrotation Yrotation Xrotation
			JOINT Spine1
			{
				OFFSET 0.056720 2.048850 -0.042750
				CHANNELS 3 Zrotation Yrotation Xrotation
				JOINT Neck
				{
					OFFSET 0.000000 0.000000 0.000000
					CHANNELS 3 Zrotation Yrotation Xrotation
					JOINT Neck1
					{
						OFFSET -0.054170 1.746240 0.172020
						CHANNELS 3 Zrotation Yrotation Xrotation
						JOINT Head
						{
							OFFSET 0.104070 1.761360 -0.123970
							CHANNELS 3 Zrotation Yrotation Xrotation
							End Site
							{
								OFFSET 0.000000 0.000000 0.000000
							}
						}
					}
				}
				JOINT LeftShoulder
				{
					OFFSET 0.000000 0.000000 0.000000
					CHANNELS 3 Zrotation Yrotation Xrotation
					JOINT LeftArm
					{
						OFFSET 3.362410 1.200890 -0.311210
						CHANNELS 3 Zrotation Yrotation Xrotation
						JOINT LeftForeArm
						{
							OFFSET 4.983000 -0.000000 -0.000000
							CHANNELS 3 Zrotation Yrotation Xrotation
							JOINT LeftHand
							{
								OFFSET 3.483560 -0.000000 -0.000000
								CHANNELS 3 Zrotation Yrotation Xrotation
								JOINT LeftFingerBase
								{
									OFFSET 0.000000 0.000000 0.000000
									CHANNELS 3 Zrotation Yrotation Xrotation
									JOINT LeftHandIndex1
									{
										OFFSET 0.715260 -0.000000 -0.000000
										CHANNELS 3 Zrotation Yrotation Xrotation
										End Site
										{
											OFFSET 0.000000 0.000000 0.000000
										}
									}
								}
								JOINT LThumb
								{
									OFFSET 0.000000 0.000000 0.000000
									CHANNELS 3 Zrotation Yrotation Xrotation
									End Site
									{
										OFFSET 0.000000 0.000000 0.000000
									}
								}
							}
						}
					}
				}
				JOINT RightShoulder
				{
					OFFSET 0.000000 0.000000 0.000000
					CHANNELS 3 Zrotation Yrotation Xrotation
					JOINT RightArm
					{
						OFFSET -3.136600 1.374050 -0.404650
						CHANNELS 3 Zrotation Yrotation Xrotation
						JOINT RightForeArm
						{
							OFFSET -5.241900 -0.000000 -0.000000
							CHANNELS 3 Zrotation Yrotation Xrotation
							JOINT RightHand
							{
								OFFSET -3.444170 -0.000000 -0.000000
								CHANNELS 3 Zrotation Yrotation Xrotation
								JOINT RightFingerBase
								{
									OFFSET 0.000000 0.000000 0.000000
									CHANNELS 3 Zrotation Yrotation Xrotation
									JOINT RightHandIndex1
									{
										OFFSET -0.622530 -0.000000 -0.000000
										CHANNELS 3 Zrotation Yrotation Xrotation
										End Site
										{
											OFFSET 0.000000 0.000000 0.000000
										}
									}
								}
								JOINT RThumb
								{
									OFFSET 0.000000 0.000000 0.000000
									CHANNELS 3 Zrotation Yrotation Xrotation
									End Site
									{
										OFFSET 0.000000 0.000000 0.000000
									}
								}
							}
						}
					}
				}
			}
		}
	}
}
MOTION
Frames: 12
Frame Time: 0.008333
10.308986 17.430893 16.328919 -12.857728 87.520937 -7.436073 -1.198554 -2.478516 -2.378521 -19.828014 1.856751 -34.758011 2.514657 13.254653 35.988929 -3.211973 15.090206 -7.065795 0.003100 -0.362400 -0.995700 -1.711431 0.657458 -1.339233 29.693206 10.414449 -8.139139 -2.605746 -12.019090 34.738040 2.397250 -23.083808 -27.801855 -0.000700 -0.174800 0.480300 3.612250 4.199460 -1.848040 0.165926 4.960392 -5.252171 -2.887607 2.659395 3.119621 2.531383 9.236560 -12.833165 2.227260 12.622979 11.432317 -2.543300 6.638000 6.673400 2.922839 -9.556501 4.116526 -21.723193 1.328978 -67.837204 21.098052 -23.868869 -6.543987 1.612627 1.195045 91.849211 29.359573 -2.192709 -2.329100 -7.125000 0.000000 0.000000 3.002900 25.402500 -1.426300 0.035320 11.276206 5.377780 27.179613 -14.262286 -73.122129 -29.916652 30.893738 -10.422969 -1.187314 0.841205 -78.357350 4.949260 -26.216091 -2.027700 7.125000 0.000000 0.000000 35.817900 -53.754200 -8.560400 
10.302069 17.431239 16.320851 -11.267627 87.453844 -5.870523 -1.223918 -2.481554 -2.365725 -19.901953 2.047505 -34.787084 2.497081 13.236940 35.932764 -3.167999 14.917756 -7.043832 0.001800 -0.273000 -0.750100 -1.732474 0.654306 -1.346132 29.576639 10.234970 -8.241055 -2.624033 -12.038060 34.815774 2.337700 -22.814031 -27.733723 -0.000900 -0.191800 0.526900 3.640463 4.179476 -1.841940 0.167030 4.939621 -5.252196 -2.935335 2.649608 3.119081 2.598645 9.191497 -12.820062 2.251944 12.543129 11.442828 -2.554600 6.605900 6.671900 2.922569 -9.545817 4.108370 -21.713981 1.410877 -67.758776 21.062667 -23.846382 -6.545653 1.606607 1.230285 91.404268 29.849814 -2.244147 -2.413300 -7.125000 0.000000 0.000000 3.384800 25.307300 -1.615700 0.040980 11.274347 5.386879 27.073797 -14.162742 -73.206239 -29.875637 30.850033 -10.393480 -1.178022 0.842187 -78.269043 4.804110 -25.958684 -1.942200 7.125000 0.000000 0.000000 35.483000 -53.561600 -8.284900 
10.294116 17.432737 16.312782 -13.022998 87.438973 -7.609036 -1.186972 -2.486645 -2.369600 -19.975501 2.424672 -34.951867 2.487161 13.216316 35.890896 -3.096480 14.611047 -6.809726 0.002600 -0.327900 -0.900900 -1.707616 0.655908 -1.341513 29.577479 10.215448 -8.313605 -2.629409 -12.052023 34.852991 2.272995 -22.608730 -27.817255 -0.002500 -0.321500 0.883200 3.786076 4.134525 -1.892619 0.186747 4.859358 -5.251653 -2.893506 2.610885 3.136163 2.483762 9.181806 -12.765421 2.325434 12.516106 11.390812 -2.497600 6.589600 6.587100 2.910859 -9.547454 4.104599 -21.805852 1.523686 -67.692451 21.072768 -23.870851 -6.554843 1.600828 1.236517 91.095333 29.940925 -2.343432 -2.482500 -7.125000 0.000000 0.000000 3.444800 25.185600 -1.654200 0.041146 11.249610 5.400863 26.917824 -14.074702 -73.180019 -29.823237 30.806257 -10.351182 -1.165026 0.830843 -78.214864 4.771819 -25.443587 -1.897000 7.125000 0.000000 0.000000 35.067300 -53.127500 -7.769800 
10.287545 17.435273 16.305174 -13.139514 87.433856 -7.727829 -1.181821 -2.493574 -2.370034 -20.063805 2.658468 -35.053265 2.479425 13.204483 35.860782 -3.056132 14.438612 -6.645077 0.002800 -0.342000 -0.939600 -1.706176 0.654276 -1.341659 29.526953 10.197110 -8.355111 -2.635789 -12.061845 34.887815 2.214189 -22.412559 -27.879477 -0.004800 -0.445700 1.224500 3.826948 4.100613 -1.923951 0.197492 4.804452 -5.248305 -2.851669 2.587547 3.097182 2.437997 9.062663 -12.507519 2.263966 12.311953 11.105770 -2.574200 6.476000 6.313400 2.899898 -9.567116 4.124000 -21.831315 1.628354 -67.589894 21.105328 -23.923912 -6.563038 1.594057 1.218128 90.893230 29.662650 -2.466912 -2.522400 -7.125000 0.000000 0.000000 3.210700 25.065900 -1.550400 0.039965 11.224132 5.415901 26.922237 -14.110896 -73.069806 -29.821635 30.826210 -10.351615 -1.160258 0.823396 -78.352135 4.731757 -25.308345 -1.870900 7.125000 0.000000 0.000000 34.928800 -53.015300 -7.629900 
10.281667 17.434582 16.297566 -11.928217 87.391949 -6.551892 -1.204626 -2.499891 -2.369516 -20.102321 2.667092 -35.033620 2.477243 13.203655 35.850508 -3.067076 14.481097 -6.621661 0.003200 -0.367800 -1.010500 -1.724106 0.648914 -1.348636 29.439752 10.128700 -8.371881 -2.640378 -12.063853 34.901558 2.191764 -22.271513 -27.786720 -0.005800 -0.493500 1.356100 3.794839 4.078166 -1.917649 0.203587 4.771834 -5.237152 -2.798743 2.578157 3.001580 2.472085 8.792489 -11.981297 2.031868 11.873953 10.542724 -2.817300 6.232900 5.801800 2.886064 -9.604129 4.164398 -21.808734 1.735914 -67.502211 21.103389 -23.959611 -6.566038 1.577391 1.219327 90.594996 29.603490 -2.481996 -2.517300 -7.125000 0.000000 0.000000 3.160700 25.066100 -1.526100 0.048453 11.189421 5.449441 26.943850 -14.104473 -73.005494 -29.851963 30.890079 -10.372352 -1.147466 0.816953 -78.456468 4.556590 -25.124068 -1.780100 7.125000 0.000000 0.000000 34.626000 -52.879600 -7.426700 
10.273367 17.430086 16.291226 -14.087752 87.357167 -8.740592 -1.173402 -2.502049 -2.385192 -20.005815 2.589131 -34.986435 2.478597 13.196782 35.840204 -3.088984 14.560904 -6.641604 0.002600 -0.331100 -0.909700 -1.696496 0.647014 -1.348224 29.478394 10.049300 -8.417900 -2.641576 -12.071048 34.905930 2.208612 -22.242437 -27.610200 -0.006200 -0.507100 1.393400 3.888619 4.038307 -1.916694 0.227624 4.695012 -5.221302 -2.695992 2.541786 3.001138 2.467097 8.586175 -11.705972 1.889692 11.550243 10.145362 -2.967300 6.048000 5.459200 2.878240 -9.622020 4.185427 -21.795401 1.819324 -67.451803 21.069768 -23.959170 -6.565914 1.547990 1.248255 90.227982 29.816856 -2.241944 -2.385000 -7.125000 0.000000 0.000000 3.351100 25.355600 -1.595800 0.064948 11.150068 5.477749 26.839076 -13.995688 -72.965110 -29.851905 30.921291 -10.364596 -1.121403 0.818318 -78.525478 4.113887 -24.762232 -1.556800 7.125000 0.000000 0.000000 33.939600 -52.632900 -7.030300 
10.264031 17.431008 16.284195 -18.174960 87.347302 -12.832910 -1.114911 -2.508500 -2.409670 -19.883642 2.537921 -34.961634 2.480943 13.183566 35.825601 -3.106253 14.615629 -6.632756 0.001500 -0.247800 -0.680800 -1.646471 0.643263 -1.340035 29.589599 10.063603 -8.459482 -2.639437 -12.082821 34.910824 2.202427 -22.211153 -27.589906 -0.008400 -0.591800 1.626100 4.078848 3.980335 -1.946280 0.260506 4.585856 -5.206234 -2.631142 2.480642 3.125487 2.570459 8.496578 -11.845635 1.795484 11.432353 10.065209 -3.062800 5.978500 5.462300 2.895148 -9.598162 4.179976 -21.715715 1.842210 -67.490809 21.008577 -23.912845 -6.552297 1.527566 1.275038 89.975902 30.002826 -2.037519 -2.273200 -7.125000 0.000000 0.000000 3.519800 25.598200 -1.656500 0.095958 11.129036 5.480277 26.668232 -13.895081 -73.030040 -29.801886 30.901221 -10.339802 -1.123425 0.836432 -78.472432 3.920388 -25.063055 -1.480600 7.125000 0.000000 0.000000 33.967800 -52.926100 -7.297800 
10.255616 17.436195 16.274973 -20.297254 87.300817 -14.941120 -1.086416 -2.518755 -2.425326 -19.831886 2.552444 -34.977295 2.480116 13.172627 35.807330 -3.114459 14.638493 -6.615252 0.001300 -0.229300 -0.629900 -1.625046 0.638690 -1.333856 29.652456 10.254983 -8.446526 -2.637232 -12.092087 34.919424 2.176565 -22.176673 -27.708210 -0.010900 -0.674900 1.854600 4.243367 3.945154 -1.987690 0.281983 4.516909 -5.197777 -2.610851 2.442604 3.206468 2.627948 8.435974 -11.925856 1.718588 11.355200 10.002014 -3.129500 5.931200 5.452500 2.905475 -9.584056 4.178992 -21.648412 1.845121 -67.538435 20.972921 -23.887619 -6.542603 1.520559 1.284971 89.879925 30.073661 -1.991951 -2.250000 -7.125000 0.000000 0.000000 3.581900 25.652600 -1.681300 0.115606 11.114003 5.476481 26.528536 -13.888552 -73.197119 -29.757787 30.888290 -10.338968 -1.171424 0.835079 -78.222098 4.720091 -25.824669 -1.897400 7.125000 0.000000 0.000000 35.305800 -53.458100 -8.139300 
10.249161 17.436426 16.267250 -18.444237 87.183193 -13.097649 -1.102370 -2.521369 -2.420020 -19.923669 2.810742 -35.087493 2.473265 13.168556 35.791136 -3.078759 14.496478 -6.592832 0.001100 -0.211600 -0.581400 -1.649565 0.643355 -1.344281 29.594560 10.441151 -8.391403 -2.640701 -12.094566 34.936541 2.159195 -22.127627 -27.743876 -0.011700 -0.697700 1.917300 4.267599 3.948939 -2.008822 0.282207 4.519728 -5.188984 -2.616252 2.446951 3.253111 2.590441 8.382617 -11.928882 1.764361 11.263321 9.920070 -3.104200 5.879800 5.376100 2.899096 -9.583717 4.183309 -21.591721 1.797793 -67.543873 20.979434 -23.907711 -6.547986 1.513891 1.289238 89.826070 30.120550 -1.942299 -2.221200 -7.125000 0.000000 0.000000 3.622800 25.713900 -1.695400 0.106447 11.101265 5.472097 26.569395 -13.938010 -73.234156 -29.758877 30.902151 -10.351231 -1.211646 0.793566 -78.161715 5.890223 -25.871480 -2.464800 7.125000 0.000000 0.000000 36.471100 -53.306600 -8.324500 
10.241899 17.434466 16.258951 -16.109950 87.060290 -10.802801 -1.121112 -2.524635 -2.413145 -20.098149 3.244026 -35.256306 2.468125 13.166493 35.781699 -3.027821 14.287879 -6.479602 0.001500 -0.247300 -0.679500 -1.677909 0.647452 -1.363126 29.449776 10.325690 -8.430226 -2.649089 -12.096400 34.959868 2.128524 -21.909287 -27.574657 -0.010500 -0.662500 1.820500 4.282270 3.924038 -2.025335 0.281219 4.489155 -5.168498 -2.680047 2.432381 3.372454 2.688884 8.358602 -12.005228 1.789565 11.206721 9.851918 -3.122400 5.848500 5.346500 2.906069 -9.556770 4.183468 -21.514635 1.781558 -67.577299 21.001906 -23.959673 -6.559955 1.503780 1.288559 89.707441 30.116424 -1.938353 -2.213000 -7.125000 0.000000 0.000000 3.617600 25.728700 -1.691700 0.106512 11.087760 5.471396 26.665227 -13.878265 -73.190873 -29.748275 30.909071 -10.349298 -1.223455 0.764205 -78.354052 6.364702 -25.656227 -2.676800 7.125000 0.000000 0.000000 36.761900 -53.045400 -8.153800 
10.228528 17.433429 16.245119 -16.857064 86.942152 -11.565423 -1.099990 -2.533368 -2.424336 -20.155739 3.537384 -35.392428 2.468598 13.157596 35.763913 -3.024435 14.252416 -6.326071 0.003300 -0.371800 -1.021500 -1.667950 0.644927 -1.370635 29.355828 9.973389 -8.633528 -2.658664 -12.107634 34.987704 2.110878 -21.628777 -27.196823 -0.004700 -0.441900 1.214300 4.496047 3.866898 -2.023904 0.296537 4.397483 -5.146980 -2.757783 2.386241 3.474323 2.763733 8.367730 -11.988546 1.753577 11.202156 9.722222 -3.171600 5.837000 5.258200 2.914529 -9.534815 4.189381 -21.523894 1.833347 -67.718030 21.041578 -24.033954 -6.575109 1.495362 1.279476 89.689628 30.043897 -1.960535 -2.213200 -7.125000 0.000000 0.000000 3.554900 25.718400 -1.663100 0.117694 11.062980 5.481714 26.622787 -13.710579 -73.210555 -29.738194 30.933265 -10.363045 -1.229734 0.766797 -78.440235 6.313227 -25.845390 -2.669400 7.125000 0.000000 0.000000 36.860600 -53.214200 -8.345000 
10.210430 17.432968 16.228405 -18.753392 86.796996 -13.487301 -1.078389 -2.542168 -2.442695 -20.038339 3.441382 -35.337572 2.468369 13.143206 35.723262 -3.108037 14.566188 -6.366525 0.003600 -0.388200 -1.066500 -1.646696 0.636761 -1.371442 29.324496 9.628981 -8.846401 -2.670462 -12.126746 35.030195 2.102053 -21.379824 -26.805533 -0.000600 -0.161600 0.443900 4.802763 3.815897 -1.950220 0.323477 4.306814 -5.127928 -2.773954 2.340784 3.527971 2.686247 8.372824 -11.926574 1.731637 11.207220 9.603485 -3.171000 5.827300 5.147900 2.911827 -9.534587 4.196704 -21.620854 1.852883 -67.953239 21.058824 -24.070985 -6.582884 1.497962 1.275569 89.759853 30.099771 -2.057263 -2.277200 -7.125000 0.000000 0.000000 3.589100 25.602100 -1.688900 0.125259 11.034298 5.495877 26.482744 -13.578873 -73.220678 -29.732950 30.956644 -10.374089 -1.233863 0.762937 -78.395887 6.370865 -25.838064 -2.698300 7.125000 0.000000 0.000000 36.914600 -53.199900 -8.346200 
